<?xml version="1.0" encoding="utf-8"?>
<!-- Generator: Adobe Illustrator 18.1.1, SVG Export Plug-In . SVG Version: 6.00 Build 0)  -->
<svg version="1.1" id="Layer_1" xmlns="http://www.w3.org/2000/svg" xmlns:xlink="http://www.w3.org/1999/xlink" x="0px" y="0px"
	 viewBox="0 0 454 364.3" enable-background="new 0 0 454 364.3" xml:space="preserve">
<g>
	<g>
		<g>
			<g>
				<path fill="#3FA9F5" stroke="#F3F3F3" stroke-width="10" stroke-miterlimit="10" d="M215.8,187L119,48.8
					c29.4-20.6,60.9-30.5,96.8-30.5V187z"/>
			</g>
		</g>
		<g>
			<g>
				<path fill="#46248F" stroke="#F3F3F3" stroke-width="10" stroke-miterlimit="10" d="M215.8,187l-84.4,146.2
					C50.7,286.6,23,183.3,69.6,102.6C82.5,80.3,97.8,63.6,119,48.8L215.8,187z"/>
			</g>
		</g>
		<g>
			<g>
				<path fill="#26FCC7" stroke="#F3F3F3" stroke-width="10" stroke-miterlimit="10" d="M215.8,187V18.2
					c93.2,0,168.8,75.6,168.8,168.8S309,355.8,215.8,355.8c-31.3,0-57.3-7-84.4-22.6L215.8,187z"/>
			</g>
		</g>
	</g>
	<g>
		<g>
		</g>
		<g>
		</g>
		<g>
		</g>
	</g>
</g>
<text transform="matrix(1 0 0 1 289.8575 290.027)" font-family="'MyriadPro-Regular'" font-size="28.1182">Landing Page</text>
<text transform="matrix(1 0 0 1 5.5202 250.268)" font-family="'MyriadPro-Regular'" font-size="28.1182">LOGO</text>
<text transform="matrix(1 0 0 1 54.9177 30.991)" font-family="'MyriadPro-Regular'" font-size="28.1182">Game Icons</text>
<circle fill="#F3F3F3" cx="214.1" cy="187.2" r="104.8"/>
<text transform="matrix(1 0 0 1 136.9063 196.2608)" font-family="'MyriadPro-Regular'" font-size="26.9384">TIME ENTRIES</text>
</svg>
